# xmcd
#
# Track frame offsets:
#	150
#	15335
#	33683
#	44711
#	57593
#	80754
#	99783
#	114192
#	136746
#	159268
#	191040
#
# Disc length: 2673 seconds
#
# Revision: 0
# Processed by: cddbd v1.5.1PL0 Copyright (c) Steve Scherf et al.
# Submitted via: dBpowerAMP V4.0
#
DISCID=880a6f0b
DTITLE=Joe Richardson Express - Somhelgisfel
DYEAR=2002
DGENRE=Blues
TTITLE0=Feelin Like the Dead
TTITLE1=Black Sheep of the Blues
TTITLE2=Golden Idol
TTITLE3=Somhelgisfel
TTITLE4=The Gospel
TTITLE5=Cry
TTITLE6=Virginia
TTITLE7=Trouble
TTITLE8=Witch cat
TTITLE9=Mother Rain
TTITLE10=Mass In Delta Minor
EXTD=
EXTT0=
EXTT1=
EXTT2=
EXTT3=
EXTT4=
EXTT5=
EXTT6=
EXTT7=
EXTT8=
EXTT9=
EXTT10=
PLAYORDER=
